<?xml version="1.0" encoding="utf-8"?>
<!-- Generator: Adobe Illustrator 17.0.0, SVG Export Plug-In . SVG Version: 6.00 Build 0)  -->
<!DOCTYPE svg PUBLIC "-//W3C//DTD SVG 1.1//EN" "http://www.w3.org/Graphics/SVG/1.1/DTD/svg11.dtd">
<svg version="1.1" id="Layer_1" xmlns="http://www.w3.org/2000/svg" xmlns:xlink="http://www.w3.org/1999/xlink" x="0px" y="0px"
	 width="144px" height="60px" viewBox="0 0 144 60" enable-background="new 0 0 144 60" xml:space="preserve">
<g id="XMLID_63_">
	<polygon id="XMLID_65_" fill-rule="evenodd" clip-rule="evenodd" fill="#CB2027" points="5.774,30 5.774,45.605 18.917,45.605 	"/>
	<path id="XMLID_66_" fill-rule="evenodd" clip-rule="evenodd" fill="#CB2027" d="M18.228,5.469
		C20.807,5.972,32.31,8.772,32.31,18.713c0,9.64-9.016,12.556-9.016,12.556l12.862,14.335h8.997V5.469H18.228z"/>
</g>
<path id="XMLID_60_" fill-rule="evenodd" clip-rule="evenodd" fill="#CB2027" d="M9.335,16.339c1.985,0,3.595,1.192,3.595,2.663
	c0,1.471-1.609,2.663-3.595,2.663c-1.985,0-3.595-1.192-3.595-2.663C5.74,17.532,7.349,16.339,9.335,16.339"/>
<path id="XMLID_59_" fill-rule="evenodd" clip-rule="evenodd" fill="#CB2027" d="M7.572,12.524c0,0,8.453,0.877,8.453,6.614
	c0,5.898-8.386,6.276-8.386,6.276s11.932,1.484,11.932-6.276C19.571,11.377,7.572,12.524,7.572,12.524"/>
<path id="XMLID_58_" fill-rule="evenodd" clip-rule="evenodd" fill="#CB2027" d="M9.192,8.467c0,0,13.56,1.11,13.56,10.526
	c0,9.739-13.536,10.612-13.536,10.612s17.457,2.31,17.457-10.612C26.673,6.071,9.192,8.467,9.192,8.467"/>
<path id="XMLID_57_" fill-rule="evenodd" clip-rule="evenodd" fill="#231F20" d="M84.839,26.136c5.617,0,5.617,5.622,5.617,5.622
	c0,4.996,0,12.651,0,12.651c0,0.776-0.629,1.406-1.404,1.406c-0.775,0-1.404-0.629-1.404-1.406c0,0,0-7.655,0-12.651
	c0,0,0-2.826-2.809-2.826c-2.809,0-2.809,2.826-2.809,2.826c0,4.996,0,12.651,0,12.651c0,0.776-0.629,1.406-1.404,1.406
	c-0.776,0-1.404-0.629-1.404-1.406c0,0,0-7.655,0-12.651C79.222,31.758,79.222,26.136,84.839,26.136"/>
<path id="XMLID_56_" fill-rule="evenodd" clip-rule="evenodd" fill="#231F20" d="M107.073,31.758c0,2.811,0,8.453,0,8.453
	s0,2.792,2.809,2.792c2.809,0,4.212,0,4.212,0s1.404,0,1.404,1.406s-1.404,1.406-1.404,1.406h-4.212c0,0-5.617,0.039-5.617-5.603
	c0-5.642,0-8.453,0-8.453v-4.18c0,0,0-1.442,1.404-1.442c1.404,0,1.404,1.442,1.404,1.442S107.073,28.947,107.073,31.758"/>
<path id="XMLID_55_" fill-rule="evenodd" clip-rule="evenodd" fill="#231F20" d="M97.477,26.136c5.617,0,5.617,5.622,5.617,5.622
	c0,4.996,0,12.651,0,12.651c0,0.776-0.629,1.406-1.404,1.406c-0.776,0-1.404-0.629-1.404-1.406c0,0,0-7.655,0-12.651
	c0,0,0-2.826-2.809-2.826c-2.809,0-2.809,2.826-2.809,2.826c0,4.996,0,12.651,0,12.651c0,0.776-0.629,1.406-1.404,1.406
	c-0.776,0-1.404-0.629-1.404-1.406c0,0,0-7.655,0-12.651C91.86,31.758,91.86,26.136,97.477,26.136"/>
<path id="XMLID_54_" fill-rule="evenodd" clip-rule="evenodd" fill="#231F20" d="M96.775,34.57h1.404
	c0.776,0,1.404,0.629,1.404,1.406c0,0.776-0.629,1.406-1.404,1.406h-1.404c-0.776,0-1.404-0.629-1.404-1.406
	C95.371,35.199,96,34.57,96.775,34.57"/>
<path id="XMLID_53_" fill-rule="evenodd" clip-rule="evenodd" fill="#231F20" d="M76.178,26.136c0,0,1.406,0.088,1.406,1.442
	c0,1.354-1.406,1.354-1.406,1.354h-4.212c0,0-2.808,0.015-2.808,2.826c0,2.811,0,8.453,0,8.453s0,2.792,2.808,2.792
	c2.809,0,2.809-2.792,2.809-2.792v-2.831h-2.809c0,0-1.404,0-1.404-1.406c0-1.406,1.404-1.406,1.404-1.406h4.212
	c0,0,1.406,0,1.406,1.406c0,1.406,0,4.237,0,4.237s0,5.603-5.617,5.603c-5.617,0-5.617-5.603-5.617-5.603v-8.453
	c0,0,0-5.622,5.617-5.622C77.583,26.136,76.178,26.136,76.178,26.136"/>
<path id="XMLID_52_" fill-rule="evenodd" clip-rule="evenodd" fill="#231F20" d="M63.54,26.136c0.776,0,1.404,0.629,1.404,1.405
	v16.868c0,0.776-0.629,1.406-1.404,1.406c-0.776,0-1.404-0.629-1.404-1.406V27.541C62.136,26.765,62.765,26.136,63.54,26.136"/>
<path id="XMLID_51_" fill-rule="evenodd" clip-rule="evenodd" fill="#231F20" d="M58.757,14.913c1.74-1.665,1.74-4.239,1.74-4.239
	c0-5.623-5.617-5.623-5.617-5.623s-2.809,0-4.213,0c-1.404,0-1.404,1.442-1.404,1.442v16.831c0,0,0,1.406,1.404,1.406
	c1.404,0,1.404-1.406,1.404-1.406V7.848h2.809c0,0,2.809,0.029,2.809,2.811c0,2.782-2.809,2.811-2.809,2.811
	s-1.404,0.015-1.404,1.42c0,1.406,1.404,1.406,1.404,1.406s2.809,0.02,2.809,2.811c0,2.792,0,4.217,0,4.217
	s-0.002,1.404,1.403,1.404c1.406,0,1.403-1.404,1.403-1.404l0.003-4.197c0-2.077-0.772-3.389-1.743-4.219
	C58.754,14.909,58.758,14.916,58.757,14.913"/>
<path id="XMLID_50_" fill-rule="evenodd" clip-rule="evenodd" fill="#231F20" d="M71.965,21.919c0,0,1.404,0,1.404,1.406
	s-1.404,1.406-1.404,1.406h-4.212c0,0-5.617,0.039-5.617-5.603c0-5.642,0-8.453,0-8.453s0-5.623,5.617-5.623
	c5.617,0,4.212,0,4.212,0s1.406,0.088,1.406,1.442c0,1.354-1.406,1.354-1.406,1.354h-4.212c0,0-2.808,0.015-2.808,2.826
	c0,2.811,0,8.453,0,8.453s0,2.792,2.808,2.792C70.562,21.919,71.965,21.919,71.965,21.919"/>
<path id="XMLID_49_" fill-rule="evenodd" clip-rule="evenodd" fill="#231F20" d="M67.753,13.485h4.213
	c0.776,0,1.404,0.629,1.404,1.406c0,0.776-0.629,1.406-1.404,1.406h-4.213c-0.775,0-1.404-0.629-1.404-1.406
	C66.349,14.115,66.978,13.485,67.753,13.485"/>
<path id="XMLID_113_" fill-rule="evenodd" clip-rule="evenodd" fill="#231F20" d="M76.179,24.73c-0.776,0-1.404-0.629-1.404-1.406
	V6.457c0-0.776,0.629-1.406,1.404-1.406c0.776,0,9.83,0,9.83,9.84C86.009,24.73,76.955,24.73,76.179,24.73 M77.583,21.919V7.848
	c0,0,5.617,0.015,5.617,7.043C83.2,21.919,77.583,21.919,77.583,21.919z"/>
<path id="XMLID_46_" fill-rule="evenodd" clip-rule="evenodd" fill="#231F20" d="M90.222,23.325c0,0.776-0.629,1.406-1.404,1.406
	c-0.775,0-1.404-0.629-1.404-1.406V6.457c0-0.776,0.629-1.406,1.404-1.406c0.776,0,4.213,0,4.213,0s5.617,0,5.617,5.623
	c0,5.623-5.617,5.623-5.617,5.623s-1.404,0-1.404-1.406c0-1.406,1.404-1.406,1.404-1.406s2.809,0.015,2.809-2.811
	c0-2.826-2.809-2.811-2.809-2.811h-2.809V23.325z"/>
<path id="XMLID_45_" fill-rule="evenodd" clip-rule="evenodd" fill="#231F20" d="M101.456,5.051c0.776,0,1.404,0.629,1.404,1.406
	v16.868c0,0.776-0.629,1.406-1.404,1.406c-0.775,0-1.404-0.629-1.404-1.406V6.457C100.052,5.681,100.681,5.051,101.456,5.051"/>
<path id="XMLID_44_" fill-rule="evenodd" clip-rule="evenodd" fill="#231F20" d="M109.882,5.051c5.617,0,5.617,5.623,5.617,5.623
	c0,4.996,0,12.651,0,12.651c0,0.776-0.629,1.406-1.404,1.406s-1.404-0.629-1.404-1.406c0,0,0-7.655,0-12.651
	c0,0,0-2.826-2.809-2.826c-2.809,0-2.809,2.826-2.809,2.826c0,4.996,0,12.651,0,12.651c0,0.776-0.629,1.406-1.404,1.406
	c-0.775,0-1.404-0.629-1.404-1.406c0,0,0-7.655,0-12.651C104.265,10.674,104.265,5.051,109.882,5.051"/>
<path id="XMLID_43_" fill-rule="evenodd" clip-rule="evenodd" fill="#231F20" d="M126.966,21.919c0,0,1.404,0,1.404,1.406
	s-1.404,1.406-1.404,1.406h-4.212c0,0-5.617,0.039-5.617-5.603c0-5.642,0-8.453,0-8.453s0-5.623,5.617-5.623
	c5.617,0,4.212,0,4.212,0s1.405,0.088,1.405,1.442c0,1.354-1.405,1.354-1.405,1.354h-4.212c0,0-2.809,0.015-2.809,2.826
	c0,2.811,0,8.453,0,8.453s0,2.792,2.809,2.792C125.563,21.919,126.966,21.919,126.966,21.919"/>
<path id="XMLID_42_" fill-rule="evenodd" clip-rule="evenodd" fill="#231F20" d="M122.755,13.485h4.213
	c0.776,0,1.404,0.629,1.404,1.406c0,0.776-0.629,1.406-1.404,1.406h-4.213c-0.776,0-1.404-0.629-1.404-1.406
	C121.35,14.115,121.979,13.485,122.755,13.485"/>
<path id="XMLID_103_" fill-rule="evenodd" clip-rule="evenodd" fill="#231F20" d="M136.866,8.163L136.866,8.163
	c0-0.539-0.39-0.775-0.96-0.775c-0.26,0-0.44,0.025-0.532,0.05v1.519h0.551C136.5,8.957,136.866,8.64,136.866,8.163 M137.237,10.029
	L137.237,10.029c0.137,0.583,0.236,0.986,0.316,1.147h-0.557c-0.068-0.118-0.161-0.477-0.272-0.998
	c-0.124-0.577-0.353-0.794-0.843-0.812h-0.508v1.81h-0.539V7.06c0.272-0.056,0.669-0.093,1.034-0.093
	c0.576,0,0.954,0.112,1.214,0.347c0.205,0.179,0.328,0.465,0.328,0.793c0,0.545-0.353,0.911-0.787,1.06v0.018
	C136.94,9.297,137.132,9.595,137.237,10.029z M138.719,7.501L138.719,7.501c-0.279-0.5-0.667-0.885-1.165-1.153
	c-0.498-0.269-1.008-0.404-1.528-0.404c-0.524,0-1.035,0.135-1.531,0.404c-0.496,0.269-0.885,0.653-1.165,1.153
	c-0.28,0.5-0.421,1.021-0.421,1.562c0,0.538,0.138,1.054,0.413,1.547c0.276,0.493,0.661,0.878,1.155,1.154
	c0.495,0.275,1.01,0.413,1.548,0.413c0.537,0,1.054-0.138,1.548-0.413c0.495-0.276,0.879-0.661,1.152-1.154
	c0.273-0.493,0.41-1.009,0.41-1.547C139.137,8.522,138.998,8.001,138.719,7.501z M139.264,10.92
	c-0.328,0.595-0.788,1.056-1.38,1.384c-0.592,0.328-1.211,0.493-1.857,0.493c-0.646,0-1.266-0.164-1.857-0.493
	c-0.592-0.328-1.053-0.789-1.383-1.384c-0.33-0.594-0.495-1.213-0.495-1.856c0-0.651,0.167-1.275,0.502-1.874
	c0.334-0.599,0.8-1.059,1.397-1.381c0.596-0.322,1.209-0.483,1.835-0.483s1.238,0.161,1.835,0.483
	c0.596,0.322,1.061,0.782,1.395,1.381c0.333,0.599,0.5,1.224,0.5,1.874C139.756,9.707,139.592,10.326,139.264,10.92z"/>
<path id="XMLID_37_" fill-rule="evenodd" clip-rule="evenodd" fill="#231F20" d="M59.092,26.136c0,0,1.406,0.088,1.406,1.442
	c0,1.354-1.406,1.354-1.406,1.354h-4.212c0,0-2.809,0.015-2.809,2.826c0,2.811,2.809,2.811,2.809,2.811s5.617,0.039,5.617,5.642
	c0,5.603-5.598,5.603-5.598,5.603h-4.232c0,0-1.404,0-1.404-1.406s1.404-1.406,1.404-1.406h4.213c0,0,2.789,0.039,2.789-2.792
	c0-2.831-2.789-2.792-2.789-2.792s-5.617-0.039-5.617-5.662c0-5.622,5.617-5.622,5.617-5.622H59.092z"/>
<path id="XMLID_36_" fill-rule="evenodd" clip-rule="evenodd" fill="#231F20" d="M126.966,26.136c0,0,1.405,0.088,1.405,1.442
	c0,1.354-1.405,1.354-1.405,1.354h-4.212c0,0-2.809,0.015-2.809,2.826c0,2.811,2.809,2.811,2.809,2.811s5.617,0.039,5.617,5.642
	c0,5.603-5.598,5.603-5.598,5.603h-4.232c0,0-1.404,0-1.404-1.406s1.404-1.406,1.404-1.406h4.213c0,0,2.789,0.039,2.789-2.792
	c0-2.831-2.789-2.792-2.789-2.792s-5.617-0.039-5.617-5.662c0-5.622,5.617-5.622,5.617-5.622H126.966z"/>
<path id="XMLID_69_" fill="#231F20" d="M128.273,55.782h-2.546v-2.354h2.266v-0.551h-2.266v-2.059h2.41v-0.558h-3.073v6.081h3.208
	V55.782z M123.955,55.623c-0.102,0.048-0.218,0.09-0.348,0.128c-0.13,0.037-0.27,0.067-0.418,0.088
	c-0.148,0.021-0.299,0.032-0.455,0.032c-0.475-0.001-0.883-0.102-1.224-0.303c-0.339-0.201-0.601-0.489-0.782-0.867
	c-0.182-0.378-0.275-0.834-0.277-1.367c0.002-0.419,0.057-0.791,0.169-1.113c0.11-0.323,0.269-0.596,0.475-0.817
	c0.205-0.221,0.449-0.387,0.733-0.501c0.285-0.113,0.599-0.17,0.946-0.17c0.239,0.001,0.456,0.025,0.649,0.073
	c0.193,0.046,0.361,0.104,0.5,0.174l0.176-0.559c-0.064-0.033-0.154-0.069-0.271-0.107c-0.117-0.039-0.265-0.07-0.442-0.098
	c-0.177-0.026-0.386-0.041-0.628-0.043c-0.447,0.002-0.853,0.075-1.22,0.221c-0.366,0.146-0.682,0.358-0.948,0.635
	c-0.265,0.277-0.47,0.612-0.615,1.003c-0.144,0.393-0.217,0.834-0.218,1.326c0.002,0.412,0.049,0.782,0.144,1.111
	c0.094,0.328,0.227,0.614,0.4,0.861c0.173,0.245,0.376,0.45,0.611,0.613c0.235,0.162,0.493,0.285,0.775,0.366
	c0.283,0.081,0.581,0.122,0.895,0.122c0.232-0.001,0.446-0.015,0.64-0.04c0.194-0.026,0.366-0.06,0.513-0.101
	c0.148-0.041,0.269-0.084,0.363-0.13L123.955,55.623z M118.752,50.259h-0.631v2.65c0,0.316,0.003,0.615,0.007,0.894
	c0.004,0.278,0.013,0.551,0.024,0.817c0.012,0.266,0.028,0.54,0.049,0.82l-0.016,0.008c-0.14-0.313-0.297-0.632-0.473-0.958
	c-0.177-0.325-0.372-0.668-0.588-1.029l-1.963-3.2h-0.694v6.081h0.623v-2.682c0-0.262,0-0.507-0.003-0.731
	c-0.001-0.226-0.004-0.44-0.008-0.643c-0.005-0.202-0.011-0.398-0.02-0.589c-0.008-0.19-0.02-0.382-0.033-0.575l0.032-0.008
	c0.149,0.335,0.318,0.672,0.506,1.011c0.186,0.338,0.383,0.677,0.588,1.016l1.939,3.2h0.662V50.259z M113.484,55.782h-2.546v-2.354
	h2.267v-0.551h-2.267v-2.059h2.41v-0.558h-3.073v6.081h3.208V55.782z M109.103,53.204h-1.884v0.535h1.229v1.947
	c-0.088,0.049-0.217,0.091-0.388,0.124c-0.172,0.033-0.386,0.05-0.641,0.052c-0.349,0-0.664-0.057-0.946-0.169
	c-0.283-0.112-0.526-0.278-0.729-0.495c-0.202-0.218-0.358-0.487-0.467-0.805c-0.109-0.318-0.164-0.682-0.165-1.093
	c0.002-0.404,0.059-0.762,0.173-1.078c0.115-0.314,0.278-0.578,0.49-0.797c0.212-0.217,0.464-0.382,0.758-0.493
	c0.294-0.113,0.621-0.17,0.982-0.17c0.282,0.001,0.523,0.025,0.725,0.073c0.201,0.046,0.375,0.104,0.52,0.174l0.176-0.551
	c-0.102-0.048-0.225-0.092-0.37-0.131c-0.144-0.039-0.303-0.068-0.479-0.09c-0.175-0.023-0.36-0.034-0.556-0.034
	c-0.478,0.001-0.908,0.078-1.292,0.23c-0.382,0.15-0.709,0.366-0.98,0.644c-0.271,0.278-0.479,0.609-0.622,0.991
	c-0.144,0.383-0.217,0.807-0.218,1.272c-0.001,0.215,0.017,0.44,0.053,0.673c0.036,0.233,0.097,0.464,0.182,0.693
	c0.085,0.229,0.201,0.444,0.346,0.648c0.146,0.204,0.327,0.384,0.545,0.542c0.218,0.158,0.478,0.282,0.78,0.371
	c0.301,0.09,0.65,0.137,1.047,0.138c0.257-0.001,0.496-0.018,0.717-0.052c0.221-0.033,0.418-0.075,0.591-0.123
	c0.173-0.047,0.314-0.093,0.424-0.137V53.204z M100.835,53.141V50.81c0.068-0.017,0.165-0.032,0.291-0.044
	c0.126-0.013,0.279-0.02,0.459-0.02c0.188-0.001,0.366,0.019,0.535,0.057c0.17,0.04,0.322,0.105,0.454,0.195
	c0.133,0.091,0.238,0.212,0.315,0.363c0.076,0.152,0.116,0.34,0.117,0.565c-0.001,0.246-0.059,0.46-0.172,0.641
	c-0.113,0.181-0.274,0.321-0.482,0.42c-0.206,0.1-0.452,0.15-0.736,0.152H100.835z M102.543,53.404
	c0.218-0.077,0.411-0.186,0.581-0.327c0.17-0.141,0.303-0.314,0.402-0.519c0.098-0.205,0.149-0.442,0.15-0.71
	c0-0.153-0.019-0.298-0.054-0.438c-0.036-0.139-0.087-0.269-0.154-0.385c-0.068-0.118-0.15-0.222-0.246-0.31
	c-0.118-0.112-0.258-0.205-0.416-0.278c-0.158-0.073-0.342-0.128-0.548-0.164c-0.206-0.036-0.44-0.053-0.704-0.053
	c-0.161,0-0.323,0.005-0.487,0.014c-0.165,0.011-0.323,0.025-0.476,0.044c-0.152,0.02-0.291,0.043-0.418,0.069v5.994h0.662v-2.69
	h0.742c0.238-0.001,0.438,0.043,0.599,0.129c0.161,0.085,0.293,0.219,0.394,0.399c0.101,0.181,0.179,0.411,0.237,0.693
	c0.053,0.254,0.104,0.48,0.152,0.678c0.047,0.199,0.09,0.366,0.132,0.5c0.04,0.134,0.076,0.23,0.108,0.29h0.686
	c-0.058-0.114-0.125-0.309-0.197-0.58c-0.072-0.271-0.156-0.627-0.25-1.064c-0.07-0.334-0.178-0.609-0.325-0.826
	c-0.145-0.218-0.335-0.366-0.569-0.443V53.404z M99.191,55.782h-2.546v-2.354h2.267v-0.551h-2.267v-2.059h2.41v-0.558h-3.073v6.081
	h3.208V55.782z M94.609,50.259l-1.014,3.057c-0.137,0.399-0.263,0.793-0.38,1.181c-0.117,0.387-0.217,0.76-0.298,1.118h-0.024
	c-0.08-0.355-0.174-0.725-0.283-1.11c-0.108-0.383-0.226-0.781-0.355-1.193l-0.934-3.052h-0.718l1.924,6.081h0.702l2.091-6.081
	H94.609z M89.885,50.259h-0.63v2.65c0,0.316,0.003,0.615,0.007,0.894c0.004,0.278,0.013,0.551,0.024,0.817
	c0.012,0.266,0.028,0.54,0.049,0.82l-0.016,0.008c-0.14-0.313-0.297-0.632-0.474-0.958c-0.177-0.325-0.372-0.668-0.588-1.029
	l-1.963-3.2h-0.694v6.081h0.622v-2.682c0-0.262,0-0.507-0.003-0.731c-0.001-0.226-0.004-0.44-0.008-0.643
	c-0.005-0.202-0.011-0.398-0.02-0.589c-0.008-0.19-0.02-0.382-0.033-0.575l0.032-0.008c0.149,0.335,0.318,0.672,0.505,1.011
	c0.186,0.338,0.383,0.677,0.588,1.016l1.939,3.2h0.662V50.259z M82,50.714c0.261,0.001,0.492,0.052,0.697,0.149
	c0.205,0.097,0.383,0.231,0.533,0.4c0.152,0.17,0.277,0.364,0.375,0.583c0.1,0.219,0.173,0.451,0.222,0.694
	c0.048,0.245,0.072,0.49,0.072,0.736c0,0.279-0.027,0.547-0.078,0.805c-0.053,0.257-0.13,0.495-0.234,0.714
	c-0.104,0.218-0.233,0.408-0.387,0.572c-0.154,0.163-0.332,0.29-0.535,0.38c-0.203,0.09-0.43,0.137-0.681,0.138
	c-0.247-0.001-0.472-0.049-0.673-0.141c-0.202-0.093-0.379-0.222-0.534-0.386c-0.153-0.164-0.282-0.354-0.386-0.569
	c-0.104-0.216-0.182-0.448-0.235-0.696c-0.053-0.247-0.08-0.501-0.08-0.762c0-0.261,0.024-0.516,0.072-0.769
	c0.048-0.253,0.121-0.49,0.219-0.712c0.099-0.222,0.224-0.418,0.377-0.588c0.152-0.17,0.332-0.305,0.541-0.402
	C81.493,50.765,81.732,50.715,82,50.714z M82.031,50.163c-0.383,0.002-0.736,0.075-1.057,0.22c-0.322,0.145-0.601,0.355-0.839,0.63
	c-0.238,0.275-0.422,0.609-0.553,1.002c-0.13,0.392-0.198,0.837-0.2,1.333c0.002,0.476,0.065,0.904,0.19,1.283
	c0.126,0.381,0.303,0.705,0.533,0.973c0.229,0.269,0.502,0.475,0.815,0.617c0.314,0.142,0.66,0.214,1.039,0.215
	c0.289,0,0.564-0.042,0.826-0.126c0.262-0.085,0.503-0.212,0.722-0.382c0.219-0.169,0.41-0.382,0.572-0.637
	c0.162-0.254,0.288-0.552,0.377-0.894c0.089-0.341,0.134-0.725,0.136-1.153c-0.002-0.46-0.061-0.879-0.181-1.256
	c-0.12-0.377-0.293-0.701-0.516-0.974c-0.225-0.271-0.493-0.482-0.807-0.628C82.774,50.239,82.421,50.165,82.031,50.163z
	 M78.624,55.623c-0.102,0.048-0.218,0.09-0.348,0.128c-0.13,0.037-0.27,0.067-0.418,0.088c-0.148,0.021-0.299,0.032-0.455,0.032
	c-0.475-0.001-0.883-0.102-1.224-0.303c-0.339-0.201-0.601-0.489-0.782-0.867c-0.182-0.378-0.275-0.834-0.277-1.367
	c0.002-0.419,0.057-0.791,0.169-1.113c0.11-0.323,0.269-0.596,0.475-0.817c0.205-0.221,0.45-0.387,0.733-0.501
	c0.285-0.113,0.599-0.17,0.946-0.17c0.239,0.001,0.456,0.025,0.649,0.073c0.193,0.046,0.361,0.104,0.5,0.174l0.176-0.559
	c-0.064-0.033-0.154-0.069-0.271-0.107c-0.117-0.039-0.265-0.07-0.442-0.098c-0.177-0.026-0.386-0.041-0.628-0.043
	c-0.447,0.002-0.853,0.075-1.22,0.221c-0.366,0.146-0.682,0.358-0.948,0.635c-0.265,0.277-0.47,0.612-0.615,1.003
	c-0.144,0.393-0.217,0.834-0.218,1.326c0.002,0.412,0.049,0.782,0.144,1.111c0.094,0.328,0.227,0.614,0.4,0.861
	c0.173,0.245,0.376,0.45,0.611,0.613c0.236,0.162,0.493,0.285,0.775,0.366c0.283,0.081,0.581,0.122,0.895,0.122
	c0.232-0.001,0.446-0.015,0.64-0.04c0.194-0.026,0.366-0.06,0.513-0.101c0.148-0.041,0.269-0.084,0.363-0.13L78.624,55.623z
	 M71.624,50.459c-0.077-0.049-0.177-0.094-0.298-0.138c-0.121-0.044-0.261-0.078-0.42-0.106c-0.159-0.028-0.335-0.041-0.527-0.043
	c-0.278,0.002-0.531,0.041-0.758,0.12c-0.228,0.08-0.423,0.191-0.588,0.335c-0.164,0.144-0.29,0.313-0.379,0.508
	c-0.088,0.194-0.133,0.408-0.134,0.641c0.003,0.278,0.068,0.525,0.195,0.741c0.128,0.215,0.307,0.403,0.538,0.564
	c0.23,0.16,0.499,0.297,0.807,0.411c0.262,0.105,0.476,0.22,0.641,0.342c0.165,0.123,0.286,0.261,0.362,0.415
	c0.077,0.153,0.116,0.33,0.114,0.528c-0.001,0.219-0.052,0.411-0.154,0.575c-0.102,0.163-0.249,0.29-0.442,0.38
	c-0.193,0.09-0.424,0.137-0.697,0.138c-0.166,0-0.329-0.017-0.487-0.049c-0.158-0.032-0.307-0.077-0.447-0.133
	c-0.139-0.056-0.265-0.12-0.375-0.193l-0.184,0.551c0.104,0.073,0.233,0.137,0.389,0.195c0.157,0.057,0.327,0.102,0.511,0.136
	c0.184,0.033,0.367,0.05,0.553,0.052c0.327-0.001,0.616-0.045,0.866-0.132c0.251-0.085,0.46-0.206,0.631-0.36
	c0.17-0.154,0.298-0.335,0.384-0.541c0.086-0.207,0.13-0.431,0.13-0.674c0-0.289-0.056-0.541-0.166-0.758
	c-0.112-0.217-0.277-0.408-0.497-0.575c-0.22-0.166-0.493-0.318-0.821-0.455c-0.271-0.113-0.493-0.226-0.668-0.342
	c-0.174-0.117-0.305-0.246-0.389-0.391c-0.084-0.144-0.125-0.315-0.125-0.512c0-0.112,0.02-0.224,0.062-0.335
	c0.043-0.112,0.11-0.214,0.202-0.309c0.093-0.093,0.213-0.169,0.362-0.226c0.148-0.057,0.327-0.086,0.539-0.088
	c0.17,0.001,0.326,0.017,0.466,0.048c0.14,0.029,0.261,0.067,0.362,0.109c0.102,0.043,0.184,0.084,0.242,0.122L71.624,50.459z
	 M67.418,50.459c-0.077-0.049-0.177-0.094-0.298-0.138c-0.121-0.044-0.261-0.078-0.42-0.106c-0.159-0.028-0.335-0.041-0.527-0.043
	c-0.278,0.002-0.531,0.041-0.758,0.12c-0.228,0.08-0.423,0.191-0.588,0.335c-0.164,0.144-0.29,0.313-0.379,0.508
	c-0.088,0.194-0.133,0.408-0.134,0.641c0.003,0.278,0.068,0.525,0.195,0.741c0.128,0.215,0.307,0.403,0.538,0.564
	c0.23,0.16,0.499,0.297,0.807,0.411c0.262,0.105,0.476,0.22,0.641,0.342c0.165,0.123,0.286,0.261,0.362,0.415
	c0.077,0.153,0.116,0.33,0.114,0.528c-0.001,0.219-0.052,0.411-0.154,0.575c-0.102,0.163-0.249,0.29-0.442,0.38
	c-0.193,0.09-0.424,0.137-0.697,0.138c-0.166,0-0.329-0.017-0.487-0.049c-0.158-0.032-0.307-0.077-0.447-0.133
	c-0.139-0.056-0.265-0.12-0.375-0.193l-0.184,0.551c0.104,0.073,0.233,0.137,0.389,0.195c0.157,0.057,0.327,0.102,0.511,0.136
	c0.184,0.033,0.367,0.05,0.553,0.052c0.327-0.001,0.616-0.045,0.866-0.132c0.251-0.085,0.46-0.206,0.63-0.36
	c0.17-0.154,0.298-0.335,0.385-0.541c0.086-0.207,0.13-0.431,0.13-0.674c0-0.289-0.056-0.541-0.166-0.758
	c-0.112-0.217-0.277-0.408-0.498-0.575c-0.22-0.166-0.493-0.318-0.821-0.455c-0.271-0.113-0.493-0.226-0.667-0.342
	c-0.174-0.117-0.305-0.246-0.389-0.391c-0.084-0.144-0.125-0.315-0.125-0.512c0-0.112,0.02-0.224,0.062-0.335
	c0.042-0.112,0.11-0.214,0.202-0.309c0.093-0.093,0.213-0.169,0.362-0.226c0.148-0.057,0.327-0.086,0.539-0.088
	c0.17,0.001,0.326,0.017,0.466,0.048c0.14,0.029,0.261,0.067,0.362,0.109c0.102,0.043,0.184,0.084,0.242,0.122L67.418,50.459z
	 M63.523,55.782h-2.546v-2.354h2.267v-0.551h-2.267v-2.059h2.41v-0.558h-3.073v6.081h3.208V55.782z M59.453,55.774h-2.514v-5.515
	h-0.662v6.081h3.176V55.774z M55.295,55.782h-2.546v-2.354h2.267v-0.551h-2.267v-2.059h2.41v-0.558h-3.073v6.081h3.208V55.782z
	 M48.152,53.141V50.81c0.068-0.017,0.165-0.032,0.291-0.044c0.126-0.013,0.279-0.02,0.459-0.02c0.188-0.001,0.366,0.019,0.535,0.057
	c0.17,0.04,0.322,0.105,0.453,0.195c0.133,0.091,0.238,0.212,0.315,0.363c0.076,0.152,0.116,0.34,0.117,0.565
	c-0.001,0.246-0.059,0.46-0.172,0.641c-0.113,0.181-0.274,0.321-0.482,0.42c-0.206,0.1-0.452,0.15-0.736,0.152H48.152z
	 M49.86,53.404c0.218-0.077,0.411-0.186,0.581-0.327c0.17-0.141,0.303-0.314,0.402-0.519c0.098-0.205,0.149-0.442,0.15-0.71
	c0-0.153-0.019-0.298-0.055-0.438c-0.036-0.139-0.087-0.269-0.154-0.385c-0.068-0.118-0.15-0.222-0.246-0.31
	c-0.118-0.112-0.258-0.205-0.416-0.278c-0.158-0.073-0.342-0.128-0.548-0.164c-0.206-0.036-0.44-0.053-0.704-0.053
	c-0.161,0-0.323,0.005-0.487,0.014c-0.165,0.011-0.323,0.025-0.476,0.044c-0.152,0.02-0.291,0.043-0.418,0.069v5.994h0.662v-2.69
	h0.742c0.238-0.001,0.437,0.043,0.599,0.129c0.161,0.085,0.293,0.219,0.394,0.399c0.101,0.181,0.179,0.411,0.237,0.693
	c0.053,0.254,0.104,0.48,0.152,0.678c0.047,0.199,0.09,0.366,0.132,0.5c0.04,0.134,0.076,0.23,0.108,0.29h0.686
	c-0.058-0.114-0.125-0.309-0.197-0.58c-0.072-0.271-0.156-0.627-0.25-1.064c-0.07-0.334-0.178-0.609-0.325-0.826
	c-0.145-0.218-0.335-0.366-0.569-0.443V53.404z M45.463,56.341h0.662v-6.081h-0.662V56.341z M44.018,50.259l-0.822,3.148
	c-0.096,0.374-0.185,0.734-0.266,1.081c-0.081,0.346-0.153,0.692-0.213,1.038h-0.024c-0.045-0.333-0.108-0.678-0.185-1.035
	c-0.079-0.358-0.16-0.718-0.246-1.083l-0.766-3.15h-0.67l-0.838,3.158c-0.066,0.261-0.131,0.515-0.195,0.759
	c-0.062,0.246-0.12,0.483-0.17,0.709c-0.05,0.227-0.09,0.444-0.121,0.649h-0.024c-0.053-0.306-0.118-0.637-0.197-0.995
	c-0.077-0.358-0.161-0.729-0.25-1.115l-0.742-3.166h-0.702l1.508,6.081h0.678l0.878-3.26c0.075-0.265,0.142-0.512,0.202-0.741
	c0.06-0.229,0.113-0.447,0.16-0.655c0.047-0.206,0.085-0.411,0.117-0.612h0.016c0.027,0.201,0.059,0.405,0.097,0.615
	c0.037,0.209,0.083,0.427,0.133,0.657c0.052,0.23,0.11,0.477,0.177,0.742l0.79,3.253h0.678l1.676-6.081H44.018z M35.095,53.204
	h-1.884v0.535h1.229v1.947c-0.088,0.049-0.217,0.091-0.388,0.124c-0.172,0.033-0.386,0.05-0.641,0.052
	c-0.349,0-0.664-0.057-0.946-0.169c-0.283-0.112-0.525-0.278-0.729-0.495c-0.202-0.218-0.358-0.487-0.467-0.805
	c-0.109-0.318-0.163-0.682-0.165-1.093c0.002-0.404,0.059-0.762,0.173-1.078c0.114-0.314,0.278-0.578,0.489-0.797
	c0.212-0.217,0.464-0.382,0.758-0.493c0.294-0.113,0.621-0.17,0.982-0.17c0.282,0.001,0.523,0.025,0.725,0.073
	c0.201,0.046,0.375,0.104,0.52,0.174l0.176-0.551c-0.102-0.048-0.225-0.092-0.37-0.131c-0.144-0.039-0.303-0.068-0.479-0.09
	c-0.176-0.023-0.36-0.034-0.556-0.034c-0.478,0.001-0.908,0.078-1.292,0.23c-0.382,0.15-0.709,0.366-0.98,0.644
	c-0.271,0.278-0.479,0.609-0.623,0.991c-0.144,0.383-0.217,0.807-0.218,1.272c-0.001,0.215,0.017,0.44,0.053,0.673
	c0.036,0.233,0.097,0.464,0.182,0.693c0.085,0.229,0.201,0.444,0.346,0.648c0.146,0.204,0.327,0.384,0.545,0.542
	c0.218,0.158,0.478,0.282,0.779,0.371c0.301,0.09,0.65,0.137,1.047,0.138c0.257-0.001,0.496-0.018,0.717-0.052
	c0.221-0.033,0.418-0.075,0.591-0.123c0.173-0.047,0.314-0.093,0.424-0.137V53.204z M29.405,50.259h-0.631v2.65
	c0,0.316,0.003,0.615,0.007,0.894c0.004,0.278,0.013,0.551,0.024,0.817c0.012,0.266,0.028,0.54,0.049,0.82l-0.016,0.008
	c-0.14-0.313-0.297-0.632-0.473-0.958c-0.177-0.325-0.372-0.668-0.588-1.029l-1.963-3.2h-0.694v6.081h0.623v-2.682
	c0-0.262,0-0.507-0.003-0.731c-0.001-0.226-0.004-0.44-0.008-0.643c-0.005-0.202-0.011-0.398-0.02-0.589
	c-0.008-0.19-0.02-0.382-0.033-0.575l0.032-0.008c0.149,0.335,0.318,0.672,0.506,1.011c0.186,0.338,0.383,0.677,0.588,1.016
	l1.939,3.2h0.662V50.259z M23.092,56.341h0.662v-6.081h-0.662V56.341z M21.719,50.259l-1.014,3.057
	c-0.137,0.399-0.263,0.793-0.38,1.181c-0.117,0.387-0.217,0.76-0.298,1.118h-0.024c-0.08-0.355-0.174-0.725-0.283-1.11
	c-0.108-0.383-0.226-0.781-0.355-1.193l-0.934-3.052h-0.718l1.923,6.081h0.702l2.091-6.081H21.719z M16.324,56.341h0.662v-6.081
	h-0.662V56.341z M12.389,53.141V50.81c0.068-0.017,0.165-0.032,0.291-0.044c0.126-0.013,0.279-0.02,0.459-0.02
	c0.188-0.001,0.366,0.019,0.535,0.057c0.17,0.04,0.322,0.105,0.454,0.195c0.133,0.091,0.238,0.212,0.315,0.363
	c0.076,0.152,0.116,0.34,0.117,0.565c-0.001,0.246-0.059,0.46-0.172,0.641c-0.113,0.181-0.274,0.321-0.481,0.42
	c-0.206,0.1-0.452,0.15-0.736,0.152H12.389z M14.097,53.404c0.218-0.077,0.411-0.186,0.581-0.327
	c0.17-0.141,0.303-0.314,0.402-0.519c0.098-0.205,0.149-0.442,0.15-0.71c0-0.153-0.019-0.298-0.055-0.438
	c-0.036-0.139-0.086-0.269-0.154-0.385c-0.068-0.118-0.15-0.222-0.246-0.31c-0.118-0.112-0.258-0.205-0.416-0.278
	c-0.158-0.073-0.342-0.128-0.548-0.164c-0.206-0.036-0.44-0.053-0.704-0.053c-0.161,0-0.323,0.005-0.487,0.014
	c-0.165,0.011-0.323,0.025-0.476,0.044c-0.152,0.02-0.291,0.043-0.418,0.069v5.994h0.662v-2.69h0.742
	c0.238-0.001,0.437,0.043,0.599,0.129c0.161,0.085,0.293,0.219,0.394,0.399c0.101,0.181,0.179,0.411,0.237,0.693
	c0.053,0.254,0.104,0.48,0.152,0.678c0.047,0.199,0.09,0.366,0.132,0.5c0.04,0.134,0.076,0.23,0.108,0.29h0.686
	c-0.058-0.114-0.125-0.309-0.197-0.58c-0.072-0.271-0.156-0.627-0.25-1.064c-0.07-0.334-0.178-0.609-0.325-0.826
	c-0.145-0.218-0.335-0.366-0.569-0.443V53.404z M6.707,50.826c0.104-0.021,0.231-0.04,0.38-0.055
	c0.15-0.016,0.322-0.025,0.513-0.025c0.528,0,0.971,0.095,1.332,0.28c0.36,0.186,0.633,0.46,0.817,0.821
	c0.185,0.362,0.278,0.806,0.278,1.334c-0.001,0.581-0.098,1.069-0.294,1.466c-0.196,0.398-0.483,0.699-0.861,0.902
	c-0.379,0.203-0.842,0.305-1.391,0.306c-0.145,0-0.286-0.003-0.42-0.008c-0.134-0.005-0.253-0.016-0.354-0.032V50.826z
	 M6.044,56.325c0.191,0.024,0.395,0.04,0.613,0.049c0.218,0.011,0.452,0.015,0.704,0.015c0.371,0,0.714-0.033,1.031-0.098
	c0.315-0.067,0.6-0.162,0.853-0.29c0.251-0.126,0.468-0.282,0.646-0.466c0.286-0.301,0.496-0.653,0.631-1.056
	c0.134-0.402,0.201-0.846,0.199-1.33c0.002-0.301-0.029-0.593-0.093-0.879c-0.062-0.285-0.166-0.552-0.31-0.799
	c-0.145-0.247-0.338-0.466-0.58-0.654c-0.241-0.189-0.54-0.335-0.897-0.442c-0.356-0.106-0.778-0.161-1.265-0.162
	c-0.283,0.001-0.555,0.013-0.811,0.037c-0.257,0.024-0.497,0.053-0.721,0.091V56.325z"/>
<path id="XMLID_64_" fill-rule="evenodd" clip-rule="evenodd" fill="#231F20" d="M132.639,50.225L132.639,50.225
	c0-0.35-0.253-0.503-0.623-0.503c-0.169,0-0.286,0.016-0.346,0.033v0.986h0.358C132.402,50.74,132.639,50.535,132.639,50.225
	 M132.88,51.436L132.88,51.436c0.089,0.379,0.153,0.64,0.205,0.745h-0.362c-0.044-0.077-0.104-0.31-0.177-0.648
	c-0.081-0.374-0.229-0.515-0.547-0.527h-0.329v1.175h-0.35v-2.672c0.177-0.036,0.434-0.06,0.671-0.06
	c0.374,0,0.619,0.072,0.788,0.225c0.133,0.117,0.213,0.302,0.213,0.515c0,0.354-0.229,0.591-0.511,0.688v0.012
	C132.687,50.961,132.811,51.154,132.88,51.436z M133.842,49.795L133.842,49.795c-0.181-0.325-0.433-0.574-0.756-0.749
	c-0.323-0.175-0.654-0.262-0.992-0.262c-0.34,0-0.672,0.087-0.993,0.262c-0.322,0.175-0.574,0.424-0.756,0.749
	c-0.182,0.324-0.273,0.663-0.273,1.014c0,0.349,0.09,0.684,0.268,1.004c0.179,0.32,0.429,0.57,0.75,0.749
	c0.321,0.178,0.656,0.268,1.005,0.268c0.349,0,0.684-0.09,1.005-0.268c0.321-0.179,0.57-0.429,0.748-0.749
	c0.178-0.32,0.266-0.655,0.266-1.004C134.113,50.458,134.023,50.12,133.842,49.795z M134.195,52.014
	c-0.213,0.386-0.512,0.685-0.896,0.898c-0.384,0.213-0.786,0.32-1.206,0.32c-0.419,0-0.822-0.107-1.206-0.32
	c-0.384-0.213-0.684-0.512-0.897-0.898c-0.214-0.385-0.321-0.787-0.321-1.205c0-0.422,0.109-0.828,0.326-1.217
	c0.217-0.389,0.519-0.688,0.907-0.896c0.387-0.209,0.784-0.314,1.191-0.314s0.803,0.105,1.191,0.314
	c0.387,0.209,0.689,0.508,0.905,0.896c0.216,0.389,0.324,0.794,0.324,1.217C134.515,51.227,134.408,51.629,134.195,52.014z"/>
</svg>
